<svg version="1.1" id="Layer_1" xmlns="http://www.w3.org/2000/svg" xmlns:xlink="http://www.w3.org/1999/xlink" x="0px" y="0px"
	 width="100%" viewBox="0 0 908 114" enable-background="new 0 0 908 114" xml:space="preserve">
<path fill="#000000" opacity="1.000000" stroke="none" 
	d="
M716.000000,115.000000 
	C477.717377,115.000000 239.434769,115.000000 1.076072,115.000000 
	C1.076072,77.058929 1.076072,39.117668 1.076072,1.088201 
	C303.543427,1.088201 606.086914,1.088201 908.815186,1.088201 
	C908.815186,38.999348 908.815186,76.999550 908.815186,115.000000 
	C851.906006,115.000000 794.918030,115.000000 737.163696,114.635849 
	C737.566040,113.847778 738.706421,113.175583 739.907898,113.038460 
	C751.415100,111.725273 762.136902,108.266815 772.036743,101.799507 
	C768.500732,95.996986 765.103516,90.422226 761.929810,85.214264 
	C755.961975,87.444115 750.570679,89.988701 744.902039,91.476555 
	C728.311218,95.831146 712.301453,95.366432 697.478760,85.147263 
	C682.969543,75.144203 678.962097,51.181831 692.193726,37.340721 
	C704.896118,24.053186 721.288513,23.794586 737.750916,25.538099 
	C744.879700,26.293098 751.761841,29.376411 759.082214,31.496597 
	C762.017578,26.490442 765.161255,21.129026 768.719971,15.059766 
	C763.482422,12.886272 758.866516,10.670948 754.054810,9.030038 
	C739.494690,4.064740 724.563965,4.147592 709.476318,5.948749 
	C695.754272,7.586892 684.072144,13.445517 674.551697,23.134706 
	C667.432068,30.380604 663.345825,39.457821 661.696228,49.646259 
	C659.356506,64.096672 661.980591,77.549828 670.179565,89.513680 
	C680.512268,104.591003 696.089111,110.681976 713.533264,113.070442 
	C714.426819,113.192795 715.180969,114.333443 716.000000,115.000000 
M93.763794,52.998947 
	C94.546753,52.346344 95.329704,51.693741 96.664703,50.850094 
	C97.054024,50.234035 97.443352,49.617981 98.061600,48.449905 
	C98.412506,47.980503 98.763412,47.511101 99.750015,46.999947 
	C100.516541,46.369770 101.283066,45.739594 102.720581,44.801678 
	C103.440926,43.097828 104.161263,41.393974 104.881607,39.690128 
	C103.244370,39.129063 101.615005,38.113701 99.968544,38.085186 
	C92.647545,37.958393 85.321640,38.114201 77.499901,38.004349 
	C77.334129,37.949562 77.168358,37.894779 77.266296,37.241745 
	C85.730537,28.780170 94.253548,20.375717 102.593811,11.793655 
	C103.804680,10.547687 104.140617,8.451431 104.881416,6.748636 
	C103.308632,6.165817 101.739380,5.087480 100.162529,5.076275 
	C83.036926,4.954584 65.893478,4.583924 48.794403,5.268317 
	C44.016071,5.459570 38.444832,7.855814 34.837826,11.048670 
	C25.144907,19.628664 16.254313,29.124876 7.211594,38.419235 
	C5.821124,39.848400 5.311205,42.134274 3.992652,44.850948 
	C8.125076,45.330620 10.997356,45.795544 13.887255,45.972095 
	C19.917814,46.340523 25.957684,46.556610 31.498192,47.024021 
	C31.316618,47.311756 31.135044,47.599487 30.340322,48.139824 
	C29.855776,49.078667 29.371231,50.017509 28.235050,51.001579 
	C27.451880,51.653137 26.668707,52.304695 25.260126,53.244659 
	C25.135471,54.147907 25.010817,55.051159 24.213192,56.253693 
	C23.171555,56.730228 22.129915,57.206764 20.697096,57.881615 
	C20.450668,58.215935 20.204239,58.550259 19.403088,59.087948 
	C18.919842,59.689068 18.436594,60.290184 17.336252,61.139465 
	C16.852551,62.078476 16.368849,63.017483 15.231207,64.000732 
	C14.448615,64.653618 13.666022,65.306503 12.325081,66.148552 
	C11.843789,66.751770 11.362497,67.354996 10.388269,68.095222 
	C10.220366,68.382553 10.052462,68.669876 9.325073,69.145882 
	C8.843512,69.750496 8.361951,70.355110 7.389331,71.093155 
	C7.223972,71.379280 7.058614,71.665413 6.419820,72.073441 
	C6.113987,72.261108 5.958899,72.534348 5.230826,73.273445 
	C4.041422,77.671982 6.187345,79.118217 10.226382,79.014587 
	C14.482135,78.905411 18.740301,78.890335 23.893610,78.988617 
	C26.928850,79.047440 29.964088,79.106262 32.749485,79.770927 
	C24.384830,88.127777 15.955246,96.421608 7.721378,104.905388 
	C6.395944,106.271057 5.943079,108.483597 5.086854,110.304657 
	C6.838817,110.869682 8.563157,111.782677 10.348720,111.924416 
	C13.660231,112.187294 17.009970,111.916527 20.339426,112.015213 
	C30.098248,112.304474 39.855518,112.649780 49.612267,113.004318 
	C58.032932,113.310310 66.884544,113.633797 73.398270,107.664978 
	C83.414352,98.486801 92.601814,88.397446 102.001869,78.561867 
	C103.306419,77.196869 103.818375,75.074387 104.697243,73.302567 
	C102.458488,72.535286 100.246597,71.214043 97.975983,71.103958 
	C90.995552,70.765518 83.992645,70.890709 77.034149,70.438568 
	C77.034149,70.438568 77.105286,70.045998 77.578156,69.925659 
	C77.882217,69.738770 78.038734,69.466896 78.664055,68.860146 
	C79.146957,67.920006 79.629860,66.979866 80.751961,66.000427 
	C81.517487,65.370415 82.283012,64.740402 83.601868,63.908607 
	C84.084450,63.308910 84.567039,62.709213 85.602280,61.906742 
	C86.084732,61.307877 86.567184,60.709011 87.663780,59.857365 
	C88.146423,58.918129 88.629059,57.978889 89.565338,56.984619 
	C89.565338,56.984619 89.996490,56.833187 90.659477,56.822849 
	C91.477135,55.561966 92.294785,54.301086 93.763794,52.998947 
M147.999969,29.500032 
	C147.999969,55.651665 147.990433,81.803307 148.017288,107.954918 
	C148.019531,110.152893 147.232224,112.985458 151.002838,112.994156 
	C157.598984,113.009369 164.195221,112.998390 171.173264,112.998390 
	C171.173264,102.359581 171.173264,92.285530 171.173264,82.000366 
	C181.205109,82.000366 190.845322,81.913918 200.479889,82.107399 
	C201.714417,82.132187 203.300476,83.347755 204.077988,84.462181 
	C210.074249,93.056786 215.893402,101.774750 221.822464,110.416740 
	C222.493378,111.394630 223.489716,112.859940 224.361771,112.878952 
	C232.876450,113.064697 241.396820,112.990791 250.796906,112.990791 
	C242.563507,100.767128 234.979172,89.507103 227.578171,78.519264 
	C238.717712,73.790955 246.338242,66.194847 249.368027,54.238068 
	C252.987518,39.954155 250.839050,26.902933 239.929276,16.663460 
	C231.599396,8.845394 220.540482,6.408817 209.461868,6.131361 
	C190.484695,5.656093 171.487015,5.995430 152.497955,6.010462 
	C151.062912,6.011599 149.627991,6.153817 147.999969,6.240762 
	C147.999969,13.884578 147.999969,21.192314 147.999969,29.500032 
M298.000031,33.549561 
	C298.000031,31.113470 298.000031,28.677380 298.000031,25.857050 
	C320.942444,25.857050 343.346405,25.857050 365.727295,25.857050 
	C365.727295,19.053448 365.727295,12.649339 365.727295,6.268900 
	C335.387909,6.268900 305.321594,6.268900 275.210693,6.268900 
	C275.120239,7.003378 275.010590,7.478886 275.010468,7.954428 
	C275.001404,41.445599 275.060730,74.937019 274.920990,108.427612 
	C274.904358,112.411087 276.506073,113.072456 279.977783,113.059334 
	C307.970001,112.953529 335.962830,113.002785 363.955444,112.991241 
	C365.228516,112.990715 366.501526,112.861382 367.724365,112.794777 
	C367.724365,106.045921 367.724365,99.641800 367.724365,92.848083 
	C344.381012,92.848083 321.310669,92.848083 298.275024,92.848083 
	C298.275024,83.046211 298.275024,73.641830 298.275024,63.847305 
	C318.285156,63.847305 338.023407,63.847305 357.722595,63.847305 
	C357.722595,57.709602 357.722595,51.971783 357.722595,45.843925 
	C337.710114,45.843925 317.971924,45.843925 298.000031,45.843925 
	C298.000031,41.810867 298.000031,38.168922 298.000031,33.549561 
M445.535980,85.000031 
	C451.520996,84.330513 457.618042,84.168678 463.466034,82.878197 
	C473.431519,80.679108 482.280975,76.459389 488.246887,67.409454 
	C495.232117,56.813255 496.533661,45.365700 493.644165,33.454517 
	C491.938721,26.424078 488.610657,20.184244 482.304291,15.568207 
	C472.828827,8.632440 462.192780,6.194912 450.889221,6.060013 
	C432.414307,5.839531 413.934875,5.995296 395.457336,6.010764 
	C394.026398,6.011962 392.595612,6.157983 391.261169,6.231388 
	C391.261169,41.980751 391.261169,77.355675 391.261169,112.743698 
	C398.591187,112.743698 405.657135,112.743698 413.108154,112.743698 
	C413.108154,103.090866 413.108154,93.688133 413.108154,83.521919 
	C423.884796,84.027489 434.247803,84.513657 445.535980,85.000031 
M810.964905,48.387505 
	C800.881226,69.674736 790.797485,90.961975 780.361694,112.992531 
	C788.272888,112.992531 795.358643,113.102707 802.432983,112.867546 
	C803.434448,112.834259 804.724792,111.291016 805.291992,110.152908 
	C807.780579,105.159142 810.052490,100.057381 812.355103,95.097923 
	C832.991699,95.097923 853.301086,95.097923 873.555603,95.097923 
	C876.549133,101.086716 879.492554,106.975334 882.395203,112.782402 
	C889.941467,112.782402 897.380127,112.782402 905.460632,112.782402 
	C903.045654,107.271088 900.985657,102.087036 898.548340,97.086868 
	C884.183533,67.616493 869.756775,38.176090 855.218811,8.790941 
	C854.595764,7.531706 852.699951,6.176742 851.348816,6.124940 
	C844.374451,5.857555 837.384338,6.000810 830.781006,6.000810 
	C824.092590,20.097500 817.564087,33.857189 810.964905,48.387505 
M540.000000,39.500000 
	C540.000000,28.404543 540.000000,17.309086 540.000000,6.288008 
	C532.020630,6.288008 524.615112,6.288008 517.000610,6.288008 
	C517.000610,40.875542 517.030823,75.176140 516.960022,109.476524 
	C516.951782,113.479607 519.513550,113.003082 522.026184,113.002647 
	C547.351624,112.998230 572.677002,113.002457 598.002441,112.989243 
	C598.940369,112.988754 599.878113,112.834587 600.706909,112.761635 
	C600.706909,106.011383 600.706909,99.605545 600.706909,92.814636 
	C580.346252,92.814636 560.275696,92.814636 540.000000,92.814636 
	C540.000000,75.113548 540.000000,57.806774 540.000000,39.500000 
M618.000000,37.500000 
	C618.000000,60.991669 617.990417,84.483345 618.015747,107.974991 
	C618.018127,110.184212 617.257812,112.992920 621.024475,112.996597 
	C627.620667,113.003044 634.216797,112.998390 640.713501,112.998390 
	C640.713501,77.012497 640.713501,41.615898 640.713501,6.288671 
	C633.018799,6.288671 625.613586,6.288671 618.000000,6.288671 
	C618.000000,16.550196 618.000000,26.525097 618.000000,37.500000 
M904.998657,6.918679 
	C904.027527,6.413987 902.354309,5.309336 902.193665,5.497317 
	C900.570679,7.396473 899.414795,7.082109 897.756226,5.430282 
	C897.110474,4.787171 895.426086,5.186919 894.224792,5.112256 
	C894.224792,8.663044 894.224792,11.775552 894.224792,14.888059 
	C894.769226,15.033348 895.313660,15.178638 895.858093,15.323927 
	C896.408020,13.374898 896.958008,11.425868 897.305847,10.193180 
	C899.344910,10.193180 901.158020,10.193180 902.896545,10.193180 
	C903.026855,11.577929 903.189697,13.307935 903.352478,15.037940 
	C903.901611,15.000712 904.450684,14.963485 904.999756,14.926256 
	C904.999756,12.550237 904.999756,10.174217 904.998657,6.918679 
M892.316711,6.942751 
	C892.440918,6.403842 892.565125,5.864932 892.689331,5.326018 
	C889.477539,5.326018 886.265747,5.326018 883.053955,5.326018 
	C883.038940,5.713337 883.023926,6.100657 883.008911,6.487976 
	C884.300110,6.800778 885.591309,7.113581 887.167542,7.495434 
	C887.167542,10.030971 887.167542,12.444267 887.167542,14.857565 
	C887.607971,14.987365 888.048401,15.117166 888.488831,15.246965 
	C888.992554,13.829469 889.495911,12.411833 890.000122,10.994528 
	C890.473877,9.663022 890.948547,8.331857 892.316711,6.942751 
z"/>
<path fill="#FFFFFF" opacity="1.000000" stroke="none" 
	d="
M716.468506,115.000000 
	C715.180969,114.333443 714.426819,113.192795 713.533264,113.070442 
	C696.089111,110.681976 680.512268,104.591003 670.179565,89.513680 
	C661.980591,77.549828 659.356506,64.096672 661.696228,49.646259 
	C663.345825,39.457821 667.432068,30.380604 674.551697,23.134706 
	C684.072144,13.445517 695.754272,7.586892 709.476318,5.948749 
	C724.563965,4.147592 739.494690,4.064740 754.054810,9.030038 
	C758.866516,10.670948 763.482422,12.886272 768.719971,15.059766 
	C765.161255,21.129026 762.017578,26.490442 759.082214,31.496597 
	C751.761841,29.376411 744.879700,26.293098 737.750916,25.538099 
	C721.288513,23.794586 704.896118,24.053186 692.193726,37.340721 
	C678.962097,51.181831 682.969543,75.144203 697.478760,85.147263 
	C712.301453,95.366432 728.311218,95.831146 744.902039,91.476555 
	C750.570679,89.988701 755.961975,87.444115 761.929810,85.214264 
	C765.103516,90.422226 768.500732,95.996986 772.036743,101.799507 
	C762.136902,108.266815 751.415100,111.725273 739.907898,113.038460 
	C738.706421,113.175583 737.566040,113.847778 736.698608,114.635849 
	C730.312378,115.000000 723.624695,115.000000 716.468506,115.000000 
z"/>
<path fill="#FFFFFF" opacity="1.000000" stroke="none" 
	d="
M147.999969,29.000042 
	C147.999969,21.192314 147.999969,13.884578 147.999969,6.240762 
	C149.627991,6.153817 151.062912,6.011599 152.497955,6.010462 
	C171.487015,5.995430 190.484695,5.656093 209.461868,6.131361 
	C220.540482,6.408817 231.599396,8.845394 239.929276,16.663460 
	C250.839050,26.902933 252.987518,39.954155 249.368027,54.238068 
	C246.338242,66.194847 238.717712,73.790955 227.578171,78.519264 
	C234.979172,89.507103 242.563507,100.767128 250.796906,112.990791 
	C241.396820,112.990791 232.876450,113.064697 224.361771,112.878952 
	C223.489716,112.859940 222.493378,111.394630 221.822464,110.416740 
	C215.893402,101.774750 210.074249,93.056786 204.077988,84.462181 
	C203.300476,83.347755 201.714417,82.132187 200.479889,82.107399 
	C190.845322,81.913918 181.205109,82.000366 171.173264,82.000366 
	C171.173264,92.285530 171.173264,102.359581 171.173264,112.998390 
	C164.195221,112.998390 157.598984,113.009369 151.002838,112.994156 
	C147.232224,112.985458 148.019531,110.152893 148.017288,107.954918 
	C147.990433,81.803307 147.999969,55.651665 147.999969,29.000042 
M204.200867,25.000168 
	C193.263596,25.000168 182.326324,25.000168 171.359985,25.000168 
	C171.359985,37.913170 171.359985,50.423191 171.359985,63.000481 
	C183.033371,63.000481 194.366089,63.382114 205.651169,62.815212 
	C210.252975,62.584045 215.198700,61.079910 219.210281,58.791611 
	C229.822952,52.737930 230.328903,34.371872 218.994003,28.708565 
	C214.803619,26.614910 209.780182,26.188581 204.200867,25.000168 
z"/>
<path fill="#FFFFFF" opacity="1.000000" stroke="none" 
	d="
M298.000031,34.038269 
	C298.000031,38.168922 298.000031,41.810867 298.000031,45.843925 
	C317.971924,45.843925 337.710114,45.843925 357.722595,45.843925 
	C357.722595,51.971783 357.722595,57.709602 357.722595,63.847305 
	C338.023407,63.847305 318.285156,63.847305 298.275024,63.847305 
	C298.275024,73.641830 298.275024,83.046211 298.275024,92.848083 
	C321.310669,92.848083 344.381012,92.848083 367.724365,92.848083 
	C367.724365,99.641800 367.724365,106.045921 367.724365,112.794777 
	C366.501526,112.861382 365.228516,112.990715 363.955444,112.991241 
	C335.962830,113.002785 307.970001,112.953529 279.977783,113.059334 
	C276.506073,113.072456 274.904358,112.411087 274.920990,108.427612 
	C275.060730,74.937019 275.001404,41.445599 275.010468,7.954428 
	C275.010590,7.478886 275.120239,7.003378 275.210693,6.268900 
	C305.321594,6.268900 335.387909,6.268900 365.727295,6.268900 
	C365.727295,12.649339 365.727295,19.053448 365.727295,25.857050 
	C343.346405,25.857050 320.942444,25.857050 298.000031,25.857050 
	C298.000031,28.677380 298.000031,31.113470 298.000031,34.038269 
z"/>
<path fill="#FFFFFF" opacity="1.000000" stroke="none" 
	d="
M445.073395,84.999924 
	C434.247803,84.513657 423.884796,84.027489 413.108154,83.521919 
	C413.108154,93.688133 413.108154,103.090866 413.108154,112.743698 
	C405.657135,112.743698 398.591187,112.743698 391.261169,112.743698 
	C391.261169,77.355675 391.261169,41.980751 391.261169,6.231388 
	C392.595612,6.157983 394.026398,6.011962 395.457336,6.010764 
	C413.934875,5.995296 432.414307,5.839531 450.889221,6.060013 
	C462.192780,6.194912 472.828827,8.632440 482.304291,15.568207 
	C488.610657,20.184244 491.938721,26.424078 493.644165,33.454517 
	C496.533661,45.365700 495.232117,56.813255 488.246887,67.409454 
	C482.280975,76.459389 473.431519,80.679108 463.466034,82.878197 
	C457.618042,84.168678 451.520996,84.330513 445.073395,84.999924 
M421.541748,25.000038 
	C418.773010,25.000038 416.004272,25.000038 413.242035,25.000038 
	C413.242035,38.589119 413.242035,51.641254 413.242035,64.999969 
	C420.098511,64.999969 426.720764,65.129555 433.335785,64.966133 
	C441.055603,64.775429 448.841980,64.868065 456.464447,63.838348 
	C463.778717,62.850269 468.976807,57.917648 470.497589,50.795605 
	C471.964478,43.925716 471.915436,36.868748 465.877563,31.271362 
	C460.129578,25.942715 452.989563,25.545370 445.976135,25.110525 
	C438.189606,24.627748 430.350067,25.000040 421.541748,25.000038 
z"/>
<path fill="#FFFFFF" opacity="1.000000" stroke="none" 
	d="
M811.000244,48.002190 
	C817.564087,33.857189 824.092590,20.097500 830.781006,6.000810 
	C837.384338,6.000810 844.374451,5.857555 851.348816,6.124940 
	C852.699951,6.176742 854.595764,7.531706 855.218811,8.790941 
	C869.756775,38.176090 884.183533,67.616493 898.548340,97.086868 
	C900.985657,102.087036 903.045654,107.271088 905.460632,112.782402 
	C897.380127,112.782402 889.941467,112.782402 882.395203,112.782402 
	C879.492554,106.975334 876.549133,101.086716 873.555603,95.097923 
	C853.301086,95.097923 832.991699,95.097923 812.355103,95.097923 
	C810.052490,100.057381 807.780579,105.159142 805.291992,110.152908 
	C804.724792,111.291016 803.434448,112.834259 802.432983,112.867546 
	C795.358643,113.102707 788.272888,112.992531 780.361694,112.992531 
	C790.797485,90.961975 800.881226,69.674736 811.000244,48.002190 
M846.036255,37.391430 
	C844.898010,35.003460 843.759827,32.615486 842.480713,29.931973 
	C835.317566,45.464851 828.327515,60.622345 821.367371,75.715118 
	C835.744629,75.715118 849.782837,75.715118 864.468750,75.715118 
	C858.327209,62.822781 852.415588,50.412937 846.036255,37.391430 
z"/>
<path fill="#FFFFFF" opacity="1.000000" stroke="none" 
	d="
M540.000000,40.000000 
	C540.000000,57.806774 540.000000,75.113548 540.000000,92.814636 
	C560.275696,92.814636 580.346252,92.814636 600.706909,92.814636 
	C600.706909,99.605545 600.706909,106.011383 600.706909,112.761635 
	C599.878113,112.834587 598.940369,112.988754 598.002441,112.989243 
	C572.677002,113.002457 547.351624,112.998230 522.026184,113.002647 
	C519.513550,113.003082 516.951782,113.479607 516.960022,109.476524 
	C517.030823,75.176140 517.000610,40.875542 517.000610,6.288008 
	C524.615112,6.288008 532.020630,6.288008 540.000000,6.288008 
	C540.000000,17.309086 540.000000,28.404543 540.000000,40.000000 
z"/>
<path fill="#06C4FF" opacity="1.000000" stroke="none" 
	d="
M76.998474,70.835701 
	C83.992645,70.890709 90.995552,70.765518 97.975983,71.103958 
	C100.246597,71.214043 102.458488,72.535286 104.697243,73.302567 
	C103.818375,75.074387 103.306419,77.196869 102.001869,78.561867 
	C92.601814,88.397446 83.414352,98.486801 73.398270,107.664978 
	C66.884544,113.633797 58.032932,113.310310 49.612267,113.004318 
	C39.855518,112.649780 30.098248,112.304474 20.339426,112.015213 
	C17.009970,111.916527 13.660231,112.187294 10.348720,111.924416 
	C8.563157,111.782677 6.838817,110.869682 5.086854,110.304657 
	C5.943079,108.483597 6.395944,106.271057 7.721378,104.905388 
	C15.955246,96.421608 24.384830,88.127777 33.113838,79.359375 
	C33.670105,78.665817 33.862019,78.383804 34.316284,77.996399 
	C35.052509,77.648994 35.526375,77.406982 36.240395,77.521652 
	C44.904976,77.918961 53.394505,78.592743 61.726662,77.735992 
	C65.962914,77.300400 69.915909,74.109879 74.299210,72.018036 
	C75.400467,71.526138 76.199471,71.180916 76.998474,70.835701 
z"/>
<path fill="#4428E8" opacity="1.000000" stroke="none" 
	d="
M31.993729,46.835281 
	C25.957684,46.556610 19.917814,46.340523 13.887255,45.972095 
	C10.997356,45.795544 8.125076,45.330620 3.992652,44.850948 
	C5.311205,42.134274 5.821124,39.848400 7.211594,38.419235 
	C16.254313,29.124876 25.144907,19.628664 34.837826,11.048670 
	C38.444832,7.855814 44.016071,5.459570 48.794403,5.268317 
	C65.893478,4.583924 83.036926,4.954584 100.162529,5.076275 
	C101.739380,5.087480 103.308632,6.165817 104.881416,6.748636 
	C104.140617,8.451431 103.804680,10.547687 102.593811,11.793655 
	C94.253548,20.375717 85.730537,28.780170 76.808487,37.614746 
	C75.566093,38.376522 74.781502,38.765289 73.531288,39.089363 
	C64.983795,39.016338 56.899261,38.879395 48.821037,39.046986 
	C43.821777,39.150703 39.294235,40.731236 35.682541,44.909126 
	C34.534866,45.635448 33.713696,46.291653 32.663506,46.954224 
	C32.434483,46.960594 31.993729,46.835281 31.993729,46.835281 
z"/>
<path fill="#FFFFFF" opacity="1.000000" stroke="none" 
	d="
M618.000000,37.000000 
	C618.000000,26.525097 618.000000,16.550196 618.000000,6.288671 
	C625.613586,6.288671 633.018799,6.288671 640.713501,6.288671 
	C640.713501,41.615898 640.713501,77.012497 640.713501,112.998390 
	C634.216797,112.998390 627.620667,113.003044 621.024475,112.996597 
	C617.257812,112.992920 618.018127,110.184212 618.015747,107.974991 
	C617.990417,84.483345 618.000000,60.991669 618.000000,37.000000 
z"/>
<path fill="#CECECB" opacity="1.000000" stroke="none" 
	d="
M28.886684,50.956352 
	C29.371231,50.017509 29.855776,49.078667 30.791546,48.318176 
	C32.495182,48.664558 33.747589,48.832584 35.333183,49.000561 
	C36.110611,49.000748 36.554852,49.000984 37.043579,49.325832 
	C38.058712,49.767063 39.029354,49.883686 40.374882,50.000305 
	C41.499523,50.000610 42.249279,50.000916 43.043541,50.325844 
	C44.058697,50.766983 45.029346,50.883492 46.333206,51.000153 
	C47.110687,51.000561 47.554958,51.000813 48.082024,51.385437 
	C48.496231,52.116348 48.789204,52.714901 49.164742,52.772182 
	C56.470604,53.886581 63.826687,54.720161 71.086220,56.073856 
	C76.471008,57.077961 81.732964,58.740757 87.049637,60.110146 
	C86.567184,60.709011 86.084732,61.307877 85.081848,61.708366 
	C80.545624,60.673595 76.543068,59.766220 72.511635,59.013554 
	C57.975250,56.299633 43.429127,53.637836 28.886684,50.956352 
z"/>
<path fill="#D3D3D0" opacity="1.000000" stroke="none" 
	d="
M83.048546,64.110382 
	C82.283012,64.740402 81.517487,65.370415 80.102036,65.988068 
	C78.634743,65.650475 77.817368,65.325241 76.769531,64.704025 
	C63.025837,62.272289 49.512615,60.136524 35.578484,58.000549 
	C31.733772,57.318363 28.309967,56.636383 24.886162,55.954407 
	C25.010817,55.051159 25.135471,54.147907 25.976219,53.155281 
	C27.319235,53.279819 27.930681,53.588802 28.575340,53.693722 
	C43.681164,56.152256 58.805485,58.502205 73.887146,61.100033 
	C77.020813,61.639809 79.998810,63.083355 83.048546,64.110382 
z"/>
<path fill="#C9C9C6" opacity="1.000000" stroke="none" 
	d="
M36.999096,49.001221 
	C36.554852,49.000984 36.110611,49.000748 35.206200,48.724560 
	C34.128197,47.948360 33.510361,47.448109 32.892525,46.947857 
	C33.713696,46.291653 34.534866,45.635448 36.078674,44.981468 
	C37.867111,45.044964 38.932922,45.106239 40.084839,45.522877 
	C42.780838,46.585239 45.390724,47.292236 48.333839,47.999409 
	C49.111382,47.999504 49.555691,47.999424 50.263191,48.283592 
	C53.684441,49.044979 56.842495,49.522114 60.333790,49.999420 
	C61.111355,49.999523 61.555676,49.999454 62.209770,50.261154 
	C63.613029,50.348782 64.806519,50.174644 66.333237,50.000404 
	C67.110779,50.000458 67.555084,50.000610 68.070610,50.369869 
	C69.761421,51.159065 71.381012,51.579151 73.333839,51.999416 
	C74.111382,51.999580 74.555687,51.999561 75.251015,52.278801 
	C78.334686,52.705612 81.167343,52.853165 84.333252,53.000595 
	C85.110817,53.000595 85.555130,53.000710 86.057350,53.342812 
	C87.408997,54.734261 88.702744,55.783722 89.996490,56.833183 
	C89.996490,56.833187 89.565338,56.984619 88.923622,56.993568 
	C74.854347,55.002033 61.426792,53.001549 47.999233,51.001068 
	C47.554958,51.000813 47.110687,51.000561 46.128033,50.737167 
	C44.726116,50.316429 43.862576,50.158825 42.999039,50.001221 
	C42.249279,50.000916 41.499523,50.000610 40.169708,49.737305 
	C38.726135,49.316608 37.862614,49.158916 36.999096,49.001221 
z"/>
<path fill="#D1D1CE" opacity="1.000000" stroke="none" 
	d="
M83.325211,64.009499 
	C79.998810,63.083355 77.020813,61.639809 73.887146,61.100033 
	C58.805485,58.502205 43.681164,56.152256 28.575340,53.693722 
	C27.930681,53.588802 27.319235,53.279819 26.288925,53.011078 
	C26.668707,52.304695 27.451880,51.653137 28.560867,50.978966 
	C43.429127,53.637836 57.975250,56.299633 72.511635,59.013554 
	C76.543068,59.766220 80.545624,60.673595 84.805527,61.809753 
	C84.567039,62.709213 84.084450,63.308910 83.325211,64.009499 
z"/>
<path fill="#B9B9B4" opacity="1.000000" stroke="none" 
	d="
M77.997513,38.167831 
	C85.321640,38.114201 92.647545,37.958393 99.968544,38.085186 
	C101.615005,38.113701 103.244370,39.129063 104.881607,39.690125 
	C104.161263,41.393974 103.440926,43.097828 102.165619,44.647202 
	C98.290581,43.659348 94.958031,42.872272 91.653473,41.981377 
	C87.090424,40.751202 82.548492,39.442757 77.997513,38.167831 
z"/>
<path fill="#CCCCC8" opacity="1.000000" stroke="none" 
	d="
M48.082024,51.385437 
	C61.426792,53.001549 74.854347,55.002033 88.696808,57.021084 
	C88.629059,57.978889 88.146423,58.918129 87.356705,59.983757 
	C81.732964,58.740757 76.471008,57.077961 71.086220,56.073856 
	C63.826687,54.720161 56.470604,53.886581 49.164742,52.772182 
	C48.789204,52.714901 48.496231,52.116348 48.082024,51.385437 
z"/>
<path fill="#E1E1DF" opacity="1.000000" stroke="none" 
	d="
M12.883430,65.959389 
	C13.666022,65.306503 14.448615,64.653618 15.958945,64.032677 
	C21.124468,65.043053 25.562254,66.021477 30.375029,66.999939 
	C31.499874,66.999504 32.249729,66.999039 33.144711,67.225128 
	C33.859966,67.300919 34.430096,67.150154 35.375145,66.999542 
	C36.499905,67.000015 37.249744,67.000328 38.064236,67.359024 
	C39.419415,68.144722 40.709934,68.572060 42.333691,68.999519 
	C43.111240,68.999664 43.555553,68.999680 44.351685,69.035217 
	C46.134819,69.991821 47.566139,70.912918 48.613480,71.912834 
	C46.499477,72.368385 44.769447,72.745110 42.965988,72.742622 
	C40.659897,71.576347 38.483353,70.497154 36.184338,70.055489 
	C28.440853,68.567879 20.653811,67.306992 12.883430,65.959389 
z"/>
<path fill="#BCBCB7" opacity="1.000000" stroke="none" 
	d="
M77.748703,38.086090 
	C82.548492,39.442757 87.090424,40.751202 91.653473,41.981377 
	C94.958031,42.872272 98.290581,43.659348 101.830124,44.801071 
	C101.283066,45.739594 100.516541,46.369770 99.153893,47.005814 
	C98.372047,47.007584 98.186333,47.003487 97.947449,46.654877 
	C96.929420,45.873775 95.964561,45.437187 94.666412,45.000423 
	C93.888756,45.000290 93.444374,45.000336 92.790192,44.738663 
	C91.386925,44.651150 90.193459,44.825344 88.666771,44.999641 
	C87.889229,44.999596 87.444923,44.999447 86.969986,44.706390 
	C86.292915,44.275581 85.646454,44.137680 84.600334,43.999821 
	C83.133980,43.999657 82.067299,43.999447 80.935852,43.640934 
	C79.580627,42.855289 78.290161,42.427952 76.666412,42.000427 
	C75.888756,42.000259 75.444374,42.000282 74.844414,41.762337 
	C74.159515,41.388832 73.630196,41.253292 73.055275,41.069977 
	C73.009666,41.022202 72.930443,40.916492 73.010353,40.662453 
	C73.392479,39.990295 73.694695,39.572178 73.996910,39.154060 
	C74.781502,38.765289 75.566093,38.376522 76.676636,37.913876 
	C77.168358,37.894779 77.334129,37.949562 77.748703,38.086090 
z"/>
<path fill="#FFFFFF" opacity="1.000000" stroke="none" 
	d="
M904.999207,7.358438 
	C904.999756,10.174217 904.999756,12.550237 904.999756,14.926256 
	C904.450684,14.963485 903.901611,15.000712 903.352478,15.037940 
	C903.189697,13.307935 903.026855,11.577929 902.896545,10.193180 
	C901.158020,10.193180 899.344910,10.193180 897.305847,10.193180 
	C896.958008,11.425868 896.408020,13.374898 895.858093,15.323927 
	C895.313660,15.178638 894.769226,15.033348 894.224792,14.888059 
	C894.224792,11.775552 894.224792,8.663044 894.224792,5.112256 
	C895.426086,5.186919 897.110474,4.787171 897.756226,5.430282 
	C899.414795,7.082109 900.570679,7.396473 902.193665,5.497317 
	C902.354309,5.309336 904.027527,6.413987 904.999207,7.358438 
z"/>
<path fill="#E3E3E1" opacity="1.000000" stroke="none" 
	d="
M12.604256,66.053970 
	C20.653811,67.306992 28.440853,68.567879 36.184338,70.055489 
	C38.483353,70.497154 40.659897,71.576347 42.847385,73.037437 
	C41.867447,74.085747 40.932686,74.460030 39.937710,74.463295 
	C39.193562,73.433655 38.586315,72.315498 37.813972,72.186607 
	C28.850803,70.690742 19.862701,69.344276 10.881207,67.958214 
	C11.362497,67.354996 11.843789,66.751770 12.604256,66.053970 
z"/>
<path fill="#BFBFBB" opacity="1.000000" stroke="none" 
	d="
M98.000610,46.999390 
	C98.186333,47.003487 98.372047,47.007584 98.836044,47.026688 
	C98.763412,47.511101 98.412506,47.980503 97.537582,48.723877 
	C94.748238,48.656910 92.447144,48.468330 90.224243,47.946594 
	C83.429161,46.351715 76.664139,44.628712 70.014656,42.651653 
	C71.071404,41.870667 72.000923,41.393581 72.930443,40.916492 
	C72.930443,40.916492 73.009666,41.022202 73.059158,41.351379 
	C73.739098,41.787140 74.369553,41.893723 75.000000,42.000305 
	C75.444374,42.000282 75.888756,42.000259 76.731079,42.358761 
	C78.419556,43.144600 79.710083,43.571918 81.000610,43.999237 
	C82.067299,43.999447 83.133980,43.999657 84.767181,44.245560 
	C85.889336,44.660603 86.444969,44.829948 87.000610,44.999298 
	C87.444923,44.999447 87.889229,44.999596 88.876572,45.261383 
	C90.613068,45.348808 91.806534,45.174595 93.000000,45.000381 
	C93.444374,45.000336 93.888756,45.000290 94.719482,45.344955 
	C96.070763,46.126236 97.035690,46.562813 98.000610,46.999390 
z"/>
<path fill="#C2C2BD" opacity="1.000000" stroke="none" 
	d="
M69.887428,42.955551 
	C76.664139,44.628712 83.429161,46.351715 90.224243,47.946594 
	C92.447144,48.468330 94.748238,48.656910 97.423126,48.999886 
	C97.443352,49.617981 97.054024,50.234035 96.001686,50.896225 
	C93.558990,50.628357 91.779312,50.314362 89.666367,50.000298 
	C88.888741,50.000324 88.444366,50.000416 87.738449,49.715576 
	C84.593353,48.938488 81.662735,48.631081 78.837227,47.911160 
	C74.526360,46.812786 70.288147,45.429222 66.360703,44.089035 
	C67.764015,43.659401 68.825722,43.307476 69.887428,42.955551 
z"/>
<path fill="#E5E5E3" opacity="1.000000" stroke="none" 
	d="
M10.634739,68.026718 
	C19.862701,69.344276 28.850803,70.690742 37.813972,72.186607 
	C38.586315,72.315498 39.193562,73.433655 39.628323,74.539017 
	C38.955048,75.006134 38.530945,75.026527 37.800331,74.919327 
	C36.662308,74.528236 35.830799,74.264725 34.599365,74.001015 
	C33.132957,74.000641 32.066479,74.000473 30.833162,73.754547 
	C30.110662,73.339592 29.554996,73.170387 28.599407,73.001015 
	C27.133011,73.000664 26.066538,73.000481 24.854931,72.773979 
	C24.139887,72.698235 23.569977,72.848808 22.666843,72.999420 
	C21.889336,72.999336 21.445049,72.999207 20.926262,72.626282 
	C17.196024,71.154716 13.540289,70.055962 9.884556,68.957199 
	C10.052462,68.669876 10.220366,68.382553 10.634739,68.026718 
z"/>
<path fill="#EDEDEB" opacity="1.000000" stroke="none" 
	d="
M22.997412,78.834145 
	C18.740301,78.890335 14.482135,78.905411 10.226382,79.014587 
	C6.187345,79.118217 4.041422,77.671982 5.800292,73.382248 
	C8.579864,73.660995 10.789970,73.830956 13.333256,74.000748 
	C14.110665,74.000694 14.554893,74.000809 15.062872,74.361618 
	C17.750219,76.092934 20.373816,77.463539 22.997412,78.834145 
z"/>
<path fill="#EAEAE9" opacity="1.000000" stroke="none" 
	d="
M23.445511,78.911377 
	C20.373816,77.463539 17.750219,76.092934 15.360889,74.340805 
	C16.063461,73.639687 16.531769,73.320091 17.333302,73.000473 
	C18.110828,73.000496 18.555128,73.000549 19.055220,73.342125 
	C20.407339,73.789299 21.703671,73.894951 23.333309,74.000534 
	C24.111029,74.000717 24.555437,74.000969 25.069675,74.366806 
	C28.110981,75.855530 31.082457,76.978668 34.053932,78.101799 
	C33.862019,78.383804 33.670105,78.665817 33.238758,79.056450 
	C29.964088,79.106262 26.928850,79.047440 23.445511,78.911377 
z"/>
<path fill="#FFFFFF" opacity="1.000000" stroke="none" 
	d="
M891.869751,6.971647 
	C890.948547,8.331857 890.473877,9.663022 890.000122,10.994528 
	C889.495911,12.411833 888.992554,13.829469 888.488831,15.246965 
	C888.048401,15.117166 887.607971,14.987365 887.167542,14.857565 
	C887.167542,12.444267 887.167542,10.030971 887.167542,7.495434 
	C885.591309,7.113581 884.300110,6.800778 883.008911,6.487976 
	C883.023926,6.100657 883.038940,5.713337 883.053955,5.326018 
	C886.265747,5.326018 889.477539,5.326018 892.689331,5.326020 
	C892.565125,5.864932 892.440918,6.403842 891.869751,6.971647 
z"/>
<path fill="#DDDDDB" opacity="1.000000" stroke="none" 
	d="
M30.000038,66.999908 
	C25.562254,66.021477 21.124468,65.043053 16.285915,64.010559 
	C16.368849,63.017483 16.852551,62.078476 17.844627,61.295250 
	C19.235308,61.634075 20.117615,61.817116 21.374964,62.000153 
	C22.500090,61.999947 23.250175,61.999744 24.333549,61.999683 
	C25.111227,61.999935 25.555613,62.000046 26.064518,62.358509 
	C27.419371,63.144436 28.709703,63.572006 30.000019,64.374680 
	C30.000011,65.499825 30.000025,66.249870 30.000038,66.999908 
z"/>
<path fill="#D7D7D4" opacity="1.000000" stroke="none" 
	d="
M24.549677,56.104050 
	C28.309967,56.636383 31.733772,57.318363 35.578659,58.333771 
	C35.999828,59.111523 35.999912,59.555843 36.000000,60.333382 
	C35.999897,61.110905 35.999798,61.555206 35.666443,61.999550 
	C34.888844,61.999275 34.444496,61.998951 33.947113,61.654121 
	C32.929184,60.873283 31.964287,60.436947 30.624458,60.000546 
	C29.499659,60.000504 28.749790,60.000523 27.728083,59.710514 
	C25.333588,58.841427 23.210932,58.262363 21.088276,57.683300 
	C22.129915,57.206764 23.171555,56.730228 24.549677,56.104050 
z"/>
<path fill="#D9D9D6" opacity="1.000000" stroke="none" 
	d="
M78.047714,69.110046 
	C78.038734,69.466896 77.882217,69.738770 76.964081,69.823906 
	C73.566566,69.481537 70.783127,69.240921 67.749786,69.000183 
	C67.499886,69.000069 67.000069,68.999931 67.000061,68.624954 
	C66.999992,67.500038 66.999924,66.750084 67.219193,65.892273 
	C67.712189,65.585114 67.899345,65.323845 68.402939,65.008423 
	C71.203629,65.344627 73.601364,65.673027 76.039497,66.322929 
	C76.735832,67.466301 77.391769,68.288170 78.047714,69.110046 
z"/>
<path fill="#E7E7E5" opacity="1.000000" stroke="none" 
	d="
M18.999430,73.000610 
	C18.555128,73.000549 18.110828,73.000496 17.102058,72.727692 
	C15.358177,72.303497 14.178764,72.152054 12.666133,72.000572 
	C11.888622,72.000557 11.444330,72.000580 10.782743,71.732803 
	C9.670428,71.296577 8.775409,71.128151 7.880389,70.959732 
	C8.361951,70.355110 8.843512,69.750496 9.604815,69.051544 
	C13.540289,70.055962 17.196024,71.154716 20.592697,72.626617 
	C19.888901,73.000046 19.444166,73.000328 18.999430,73.000610 
z"/>
<path fill="#DBDBD9" opacity="1.000000" stroke="none" 
	d="
M67.999695,69.000305 
	C70.783127,69.240921 73.566566,69.481537 76.727646,69.884079 
	C77.105286,70.045998 77.034149,70.438568 77.016312,70.637131 
	C76.199471,71.180916 75.400467,71.526138 73.874153,71.943924 
	C71.430733,71.955719 69.714615,71.894936 67.998955,71.479919 
	C67.999504,70.417229 67.999603,69.708763 67.999695,69.000305 
z"/>
<path fill="#D9D9D6" opacity="1.000000" stroke="none" 
	d="
M20.892685,57.782455 
	C23.210932,58.262363 25.333588,58.841427 27.574474,59.954556 
	C27.128468,60.992466 26.564234,61.496311 26.000000,62.000153 
	C25.555613,62.000046 25.111227,61.999935 24.268957,61.641357 
	C22.580845,60.855110 21.290617,60.427326 19.990889,59.720757 
	C19.973530,59.256176 19.965672,59.070377 19.957811,58.884579 
	C20.204239,58.550259 20.450668,58.215935 20.892685,57.782455 
z"/>
<path fill="#EAEAE9" opacity="1.000000" stroke="none" 
	d="
M11.000038,72.000595 
	C11.444330,72.000580 11.888622,72.000557 12.666302,72.333939 
	C12.999818,73.111870 12.999947,73.556396 13.000076,74.000916 
	C10.789970,73.830956 8.579864,73.660995 6.162157,73.192093 
	C5.958899,72.534348 6.113987,72.261108 6.967592,72.143822 
	C8.676923,72.143005 9.838480,72.071800 11.000038,72.000595 
z"/>
<path fill="#C8C8C4" opacity="1.000000" stroke="none" 
	d="
M90.327988,56.828018 
	C88.702744,55.783722 87.408997,54.734261 86.457329,53.342506 
	C87.866333,53.000080 88.933258,52.999947 90.389275,53.000336 
	C91.556389,53.013973 92.334419,53.027092 93.112442,53.040207 
	C92.294785,54.301086 91.477135,55.561966 90.327988,56.828018 
z"/>
<path fill="#C4C4C0" opacity="1.000000" stroke="none" 
	d="
M93.438118,53.019577 
	C92.334419,53.027092 91.556389,53.013973 90.389191,52.625404 
	C89.999893,51.500092 89.999763,50.750229 89.999634,50.000366 
	C91.779312,50.314362 93.558990,50.628357 95.725662,50.991745 
	C95.329704,51.693741 94.546753,52.346344 93.438118,53.019577 
z"/>
<path fill="#D7D7D4" opacity="1.000000" stroke="none" 
	d="
M78.355881,68.985092 
	C77.391769,68.288170 76.735832,67.466301 76.258995,66.214676 
	C76.712059,65.585327 76.899353,65.323685 77.000000,65.000000 
	C77.817368,65.325241 78.634743,65.650475 79.782440,66.007721 
	C79.629860,66.979866 79.146957,67.920006 78.355881,68.985092 
z"/>
<path fill="#CCCCC8" opacity="1.000000" stroke="none" 
	d="
M32.663506,46.954224 
	C33.510361,47.448109 34.128197,47.948360 34.873016,48.724609 
	C33.747589,48.832584 32.495182,48.664558 31.098122,48.191879 
	C31.135044,47.599487 31.316618,47.311756 31.745960,46.929649 
	C31.993729,46.835281 32.434483,46.960594 32.663506,46.954224 
z"/>
<path fill="#E8E8E7" opacity="1.000000" stroke="none" 
	d="
M10.782743,71.732796 
	C9.838480,72.071800 8.676923,72.143005 7.204310,72.082870 
	C7.058614,71.665413 7.223972,71.379280 7.634860,71.026443 
	C8.775409,71.128151 9.670428,71.296577 10.782743,71.732796 
z"/>
<path fill="#DCDCDA" opacity="1.000000" stroke="none" 
	d="
M19.680450,58.986263 
	C19.965672,59.070377 19.973530,59.256176 20.097481,59.980000 
	C20.475691,61.012066 20.737808,61.506111 20.999924,62.000153 
	C20.117615,61.817116 19.235308,61.634075 18.153175,61.171173 
	C18.436594,60.290184 18.919842,59.689068 19.680450,58.986263 
z"/>
<path fill="#000000" opacity="1.000000" stroke="none" 
	d="
M204.668762,25.000996 
	C209.780182,26.188581 214.803619,26.614910 218.994003,28.708565 
	C230.328903,34.371872 229.822952,52.737930 219.210281,58.791611 
	C215.198700,61.079910 210.252975,62.584045 205.651169,62.815212 
	C194.366089,63.382114 183.033371,63.000481 171.359985,63.000481 
	C171.359985,50.423191 171.359985,37.913170 171.359985,25.000168 
	C182.326324,25.000168 193.263596,25.000168 204.668762,25.000996 
z"/>
<path fill="#000000" opacity="1.000000" stroke="none" 
	d="
M422.037689,25.000038 
	C430.350067,25.000040 438.189606,24.627748 445.976135,25.110525 
	C452.989563,25.545370 460.129578,25.942715 465.877563,31.271362 
	C471.915436,36.868748 471.964478,43.925716 470.497589,50.795605 
	C468.976807,57.917648 463.778717,62.850269 456.464447,63.838348 
	C448.841980,64.868065 441.055603,64.775429 433.335785,64.966133 
	C426.720764,65.129555 420.098511,64.999969 413.242035,64.999969 
	C413.242035,51.641254 413.242035,38.589119 413.242035,25.000038 
	C416.004272,25.000038 418.773010,25.000038 422.037689,25.000038 
z"/>
<path fill="#000000" opacity="1.000000" stroke="none" 
	d="
M846.270081,37.697262 
	C852.415588,50.412937 858.327209,62.822781 864.468750,75.715118 
	C849.782837,75.715118 835.744629,75.715118 821.367371,75.715118 
	C828.327515,60.622345 835.317566,45.464851 842.480713,29.931973 
	C843.759827,32.615486 844.898010,35.003460 846.270081,37.697262 
z"/>
<path fill="#000000" opacity="1.000000" stroke="none" 
	d="
M67.998505,71.834160 
	C69.714615,71.894936 71.430733,71.955719 73.571899,72.090607 
	C69.915909,74.109879 65.962914,77.300400 61.726662,77.735992 
	C53.394505,78.592743 44.904976,77.918961 36.503197,77.420258 
	C36.722202,76.654510 36.918564,76.346840 37.361298,75.972931 
	C37.774063,75.620102 37.940453,75.333511 38.106846,75.046921 
	C38.530945,75.026527 38.955048,75.006134 39.688534,74.910034 
	C40.932686,74.460030 41.867447,74.085747 42.920815,73.416649 
	C44.769447,72.745110 46.499477,72.368385 49.058388,71.989288 
	C52.590988,71.935936 55.294697,71.884956 58.447342,71.910019 
	C61.930351,71.935432 64.964424,71.884796 67.998505,71.834160 
z"/>
<path fill="#E8E8E7" opacity="1.000000" stroke="none" 
	d="
M37.114925,76.039169 
	C36.918564,76.346840 36.722202,76.654510 36.263042,77.063568 
	C35.526375,77.406982 35.052509,77.648994 34.316284,77.996399 
	C31.082457,76.978668 28.110981,75.855530 25.069761,74.116570 
	C25.000032,73.333931 25.000048,73.167122 25.000063,73.000305 
	C26.066538,73.000481 27.133011,73.000664 28.630077,73.293861 
	C29.707109,73.724693 30.353554,73.862495 30.999996,74.000305 
	C32.066479,74.000473 33.132957,74.000641 34.646763,74.331680 
	C35.767696,75.121422 36.441311,75.580292 37.114925,76.039169 
z"/>
<path fill="#000000" opacity="1.000000" stroke="none" 
	d="
M70.014656,42.651653 
	C68.825722,43.307476 67.764015,43.659401 65.966888,44.145233 
	C63.153858,44.575245 61.076260,44.871349 58.548119,45.093544 
	C54.731262,45.069065 51.364944,45.118500 47.559181,45.094551 
	C44.746067,45.069950 42.372398,45.118732 39.998730,45.167511 
	C38.932922,45.106239 37.867111,45.044964 36.405174,44.911346 
	C39.294235,40.731236 43.821777,39.150703 48.821037,39.046986 
	C56.899261,38.879395 64.983795,39.016338 73.531288,39.089363 
	C73.694695,39.572178 73.392479,39.990295 73.010353,40.662453 
	C72.000923,41.393581 71.071404,41.870667 70.014656,42.651653 
z"/>
<path fill="#CCCCC8" opacity="1.000000" stroke="none" 
	d="
M43.043541,50.325844 
	C43.862576,50.158825 44.726116,50.316429 45.794827,50.737015 
	C45.029346,50.883492 44.058697,50.766983 43.043541,50.325844 
z"/>
<path fill="#CCCCC8" opacity="1.000000" stroke="none" 
	d="
M37.043579,49.325832 
	C37.862614,49.158916 38.726135,49.316608 39.794827,49.737305 
	C39.029354,49.883686 38.058712,49.767063 37.043579,49.325832 
z"/>
<path fill="#D5D5D2" opacity="1.000000" stroke="none" 
	d="
M76.769531,64.704025 
	C76.899353,65.323685 76.712059,65.585327 76.218605,65.893181 
	C73.601364,65.673027 71.203629,65.344627 68.197800,64.745407 
	C66.726326,64.316589 65.862938,64.158600 64.599892,64.000488 
	C63.133503,64.000343 62.066765,64.000328 60.833202,63.754547 
	C60.110767,63.339432 59.555153,63.170071 58.599777,63.000526 
	C57.133373,63.000381 56.066730,63.000420 54.794922,62.737473 
	C53.726345,62.316578 52.862946,62.158669 51.624657,62.000347 
	C50.500000,62.000248 49.750229,62.000565 48.697952,61.870659 
	C47.263664,61.826633 46.131882,61.912842 44.625076,61.999565 
	C43.500168,61.999290 42.750286,61.998501 41.958885,61.677139 
	C41.278091,60.904613 40.638817,60.452652 39.599365,60.000504 
	C38.132793,60.000267 37.066395,60.000214 36.000000,60.000160 
	C35.999912,59.555843 35.999828,59.111523 35.999565,58.333984 
	C49.512615,60.136524 63.025837,62.272289 76.769531,64.704025 
z"/>
<path fill="#C6C6C2" opacity="1.000000" stroke="none" 
	d="
M47.998631,45.167931 
	C51.364944,45.118500 54.731262,45.069065 58.646347,45.464211 
	C64.719833,46.947548 70.220757,48.146534 75.777214,48.971523 
	C79.813423,49.570789 83.923088,49.675362 88.000000,50.000504 
	C88.444366,50.000416 88.888741,50.000324 89.666367,50.000298 
	C89.999763,50.750229 89.999893,51.500092 90.000099,52.624886 
	C88.933258,52.999947 87.866333,53.000080 86.399429,53.000519 
	C85.555130,53.000710 85.110817,53.000595 84.082275,52.721268 
	C80.665367,52.294552 77.832687,52.147045 75.000000,51.999542 
	C74.555687,51.999561 74.111382,51.999580 73.262627,51.630310 
	C71.238586,50.840939 69.618996,50.420849 67.999397,50.000763 
	C67.555084,50.000610 67.110779,50.000458 66.123451,49.738655 
	C64.386955,49.651131 63.193478,49.825260 62.000000,49.999390 
	C61.555676,49.999454 61.111355,49.999523 60.259747,49.627537 
	C56.568310,48.836765 53.284153,48.418053 50.000000,47.999344 
	C49.555691,47.999424 49.111382,47.999504 48.333672,47.645515 
	C47.999725,46.583607 47.999180,45.875767 47.998631,45.167931 
z"/>
<path fill="#C8C8C4" opacity="1.000000" stroke="none" 
	d="
M50.263191,48.283592 
	C53.284153,48.418053 56.568310,48.836765 59.926506,49.627361 
	C56.842495,49.522114 53.684441,49.044979 50.263191,48.283592 
z"/>
<path fill="#C8C8C4" opacity="1.000000" stroke="none" 
	d="
M47.559181,45.094551 
	C47.999180,45.875767 47.999725,46.583607 48.000443,47.645340 
	C45.390724,47.292236 42.780838,46.585239 40.084839,45.522873 
	C42.372398,45.118732 44.746067,45.069950 47.559181,45.094551 
z"/>
<path fill="#C8C8C4" opacity="1.000000" stroke="none" 
	d="
M75.251015,52.278801 
	C77.832687,52.147045 80.665367,52.294552 83.749023,52.721386 
	C81.167343,52.853165 78.334686,52.705612 75.251015,52.278801 
z"/>
<path fill="#C8C8C4" opacity="1.000000" stroke="none" 
	d="
M68.070610,50.369873 
	C69.618996,50.420849 71.238586,50.840939 72.929398,51.630127 
	C71.381012,51.579151 69.761421,51.159065 68.070610,50.369873 
z"/>
<path fill="#C8C8C4" opacity="1.000000" stroke="none" 
	d="
M62.209770,50.261154 
	C63.193478,49.825260 64.386955,49.651131 65.790222,49.738754 
	C64.806519,50.174644 63.613029,50.348782 62.209770,50.261154 
z"/>
<path fill="#DFDFDC" opacity="1.000000" stroke="none" 
	d="
M57.998409,71.833977 
	C55.294697,71.884956 52.590988,71.935936 49.442368,71.910461 
	C47.566139,70.912918 46.134819,69.991821 44.505310,68.791168 
	C44.871460,68.007843 45.435806,67.504074 46.375134,67.000244 
	C47.500088,67.000313 48.250057,67.000443 49.205265,67.263359 
	C50.273716,67.683998 51.136936,67.841850 52.250076,67.999847 
	C52.500000,68.000000 52.999847,68.000305 53.030312,68.293274 
	C53.707188,68.724159 54.353592,68.862083 55.333511,69.000000 
	C56.111382,68.999954 56.555744,68.999908 57.250038,68.999908 
	C57.499977,68.999954 57.999847,69.000305 57.999847,69.354515 
	C57.999363,70.417145 57.998886,71.125557 57.998409,71.833977 
z"/>
<path fill="#DCDCDA" opacity="1.000000" stroke="none" 
	d="
M30.375029,66.999939 
	C30.000025,66.249870 30.000011,65.499825 30.108040,64.155289 
	C30.415712,63.287205 30.677223,63.100071 31.375526,62.999474 
	C32.500294,62.999550 33.250149,62.999546 34.000023,63.332855 
	C34.000134,64.110580 34.000221,64.554985 33.754692,65.166199 
	C33.339252,65.888199 33.169418,66.443382 32.999584,66.998573 
	C32.249729,66.999039 31.499874,66.999504 30.375029,66.999939 
z"/>
<path fill="#DFDFDC" opacity="1.000000" stroke="none" 
	d="
M42.000458,68.999390 
	C40.709934,68.572060 39.419415,68.144722 38.283691,67.250771 
	C38.712337,66.584465 38.899506,66.322777 39.374966,65.999405 
	C40.499851,66.000023 41.249775,66.000320 41.999748,66.375465 
	C42.000019,67.500008 42.000237,68.249702 42.000458,68.999390 
z"/>
<path fill="#DCDCDA" opacity="1.000000" stroke="none" 
	d="
M39.000000,65.999084 
	C38.899506,66.322777 38.712337,66.584465 38.219036,66.892395 
	C37.249744,67.000328 36.499905,67.000015 35.481949,66.740593 
	C35.475887,65.987755 35.737946,65.494034 36.107948,64.780746 
	C36.415565,64.287460 36.677128,64.100128 37.333828,63.999413 
	C38.111389,63.999546 38.555706,63.999470 39.000042,64.332687 
	C39.000038,65.110352 39.000019,65.554718 39.000000,65.999084 
z"/>
<path fill="#DDDDDB" opacity="1.000000" stroke="none" 
	d="
M42.333691,68.999519 
	C42.000237,68.249702 42.000019,67.500008 42.250130,66.374901 
	C42.667377,65.998940 42.834297,65.998405 43.251194,65.998840 
	C43.501167,65.999809 44.001110,65.998466 44.167496,66.244492 
	C44.889309,66.660446 45.444733,66.830376 46.000153,67.000305 
	C45.435806,67.504074 44.871460,68.007843 44.153492,68.755653 
	C43.555553,68.999680 43.111240,68.999664 42.333691,68.999519 
z"/>
<path fill="#DFDFDC" opacity="1.000000" stroke="none" 
	d="
M36.000000,65.000305 
	C35.737946,65.494034 35.475887,65.987755 35.107025,66.740433 
	C34.430096,67.150154 33.859966,67.300919 33.144711,67.225128 
	C33.169418,66.443382 33.339252,65.888199 34.087975,65.166397 
	C35.111240,64.999954 35.555622,65.000130 36.000000,65.000305 
z"/>
<path fill="#BEBEB9" opacity="1.000000" stroke="none" 
	d="
M80.935852,43.640934 
	C79.710083,43.571918 78.419556,43.144600 77.064362,42.358948 
	C78.290161,42.427952 79.580627,42.855289 80.935852,43.640934 
z"/>
<path fill="#BEBEB9" opacity="1.000000" stroke="none" 
	d="
M92.790192,44.738667 
	C91.806534,45.174595 90.613068,45.348808 89.209801,45.261284 
	C90.193459,44.825344 91.386925,44.651150 92.790192,44.738667 
z"/>
<path fill="#BEBEB9" opacity="1.000000" stroke="none" 
	d="
M97.947449,46.654877 
	C97.035690,46.562813 96.070763,46.126236 95.052765,45.345131 
	C95.964561,45.437187 96.929420,45.873775 97.947449,46.654877 
z"/>
<path fill="#BEBEB9" opacity="1.000000" stroke="none" 
	d="
M86.969986,44.706390 
	C86.444969,44.829948 85.889336,44.660603 85.166847,44.245514 
	C85.646454,44.137680 86.292915,44.275581 86.969986,44.706390 
z"/>
<path fill="#BEBEB9" opacity="1.000000" stroke="none" 
	d="
M74.844414,41.762337 
	C74.369553,41.893723 73.739098,41.787140 73.104767,41.399155 
	C73.630196,41.253292 74.159515,41.388832 74.844414,41.762337 
z"/>
<path fill="#C4C4C0" opacity="1.000000" stroke="none" 
	d="
M87.738449,49.715576 
	C83.923088,49.675362 79.813423,49.570789 75.777214,48.971523 
	C70.220757,48.146534 64.719833,46.947548 59.096886,45.538116 
	C61.076260,44.871349 63.153858,44.575245 65.625275,44.222939 
	C70.288147,45.429222 74.526360,46.812786 78.837227,47.911160 
	C81.662735,48.631081 84.593353,48.938488 87.738449,49.715576 
z"/>
<path fill="#E8E8E7" opacity="1.000000" stroke="none" 
	d="
M19.055220,73.342125 
	C19.444166,73.000328 19.888901,73.000046 20.667200,72.999420 
	C21.445049,72.999207 21.889336,72.999336 22.666821,73.249733 
	C23.000010,73.666878 23.000004,73.833748 23.000000,74.000610 
	C21.703671,73.894951 20.407339,73.789299 19.055220,73.342125 
z"/>
<path fill="#E7E7E5" opacity="1.000000" stroke="none" 
	d="
M37.361298,75.972931 
	C36.441311,75.580292 35.767696,75.121422 35.046688,74.331879 
	C35.830799,74.264725 36.662308,74.528236 37.800331,74.919327 
	C37.940453,75.333511 37.774063,75.620102 37.361298,75.972931 
z"/>
<path fill="#E7E7E5" opacity="1.000000" stroke="none" 
	d="
M23.333309,74.000534 
	C23.000004,73.833748 23.000010,73.666878 23.000042,73.249695 
	C23.569977,72.848808 24.139887,72.698235 24.854931,72.773979 
	C25.000048,73.167122 25.000032,73.333931 24.999931,73.750984 
	C24.555437,74.000969 24.111029,74.000717 23.333309,74.000534 
z"/>
<path fill="#E7E7E5" opacity="1.000000" stroke="none" 
	d="
M30.833162,73.754547 
	C30.353554,73.862495 29.707109,73.724693 29.029999,73.294037 
	C29.554996,73.170387 30.110662,73.339592 30.833162,73.754547 
z"/>
<path fill="#E8E8E7" opacity="1.000000" stroke="none" 
	d="
M13.333256,74.000748 
	C12.999947,73.556396 12.999818,73.111870 12.999519,72.333984 
	C14.178764,72.152054 15.358177,72.303497 16.768833,72.727722 
	C16.531769,73.320091 16.063461,73.639687 15.297139,73.980103 
	C14.554893,74.000809 14.110665,74.000694 13.333256,74.000748 
z"/>
<path fill="#DBDBD8" opacity="1.000000" stroke="none" 
	d="
M31.000610,62.999390 
	C30.677223,63.100071 30.415712,63.287205 30.108059,63.780190 
	C28.709703,63.572006 27.419371,63.144436 26.064518,62.358509 
	C26.564234,61.496311 27.128468,60.992466 27.846313,60.244583 
	C28.749790,60.000523 29.499659,60.000504 30.624626,60.375389 
	C31.000021,61.499996 31.000317,62.249691 31.000610,62.999390 
z"/>
<path fill="#DBDBD8" opacity="1.000000" stroke="none" 
	d="
M21.374964,62.000153 
	C20.737808,61.506111 20.475691,61.012066 20.106979,60.258781 
	C21.290617,60.427326 22.580845,60.855110 23.935669,61.641220 
	C23.250175,61.999744 22.500090,61.999947 21.374964,62.000153 
z"/>
<path fill="#D9D9D6" opacity="1.000000" stroke="none" 
	d="
M39.000027,63.999390 
	C38.555706,63.999470 38.111389,63.999546 37.313126,63.701538 
	C36.639355,62.935471 36.319523,62.467491 35.999695,61.999508 
	C35.999798,61.555206 35.999897,61.110905 36.000000,60.333382 
	C37.066395,60.000214 38.132793,60.000267 39.599495,60.375282 
	C40.000072,61.499832 40.000343,62.249416 39.781219,63.107086 
	C39.288010,63.414562 39.100742,63.675968 39.000027,63.999390 
z"/>
<path fill="#D9D9D6" opacity="1.000000" stroke="none" 
	d="
M31.375526,62.999474 
	C31.000317,62.249691 31.000021,61.499996 30.999559,60.375450 
	C31.964287,60.436947 32.929184,60.873283 33.947021,61.904358 
	C33.999981,62.665913 33.999992,62.832729 34.000000,62.999542 
	C33.250149,62.999546 32.500294,62.999550 31.375526,62.999474 
z"/>
<path fill="#DBDBD8" opacity="1.000000" stroke="none" 
	d="
M34.000023,63.332855 
	C33.999992,62.832729 33.999981,62.665913 34.000061,62.248863 
	C34.444496,61.998951 34.888844,61.999275 35.666443,61.999550 
	C36.319523,62.467491 36.639355,62.935471 36.979889,63.701328 
	C36.677128,64.100128 36.415565,64.287460 36.107948,64.780746 
	C35.555622,65.000130 35.111240,64.999954 34.333584,64.999588 
	C34.000221,64.554985 34.000134,64.110580 34.000023,63.332855 
z"/>
<path fill="#DDDDDB" opacity="1.000000" stroke="none" 
	d="
M58.447342,71.910019 
	C57.998886,71.125557 57.999363,70.417145 58.374847,69.354324 
	C59.499851,68.999847 60.249851,68.999771 61.322968,69.026558 
	C62.764057,69.035713 63.882030,69.018013 65.333504,69.000198 
	C66.111359,69.000038 66.555717,68.999985 67.000069,68.999931 
	C67.000069,68.999931 67.499886,69.000069 67.749786,69.000183 
	C67.999603,69.708763 67.999504,70.417229 67.998955,71.479919 
	C64.964424,71.884796 61.930351,71.935432 58.447342,71.910019 
z"/>
<path fill="#D7D7D4" opacity="1.000000" stroke="none" 
	d="
M64.999542,64.000610 
	C65.862938,64.158600 66.726326,64.316589 67.794861,64.737595 
	C67.899345,65.323845 67.712189,65.585114 66.885727,65.892242 
	C65.888618,66.000153 65.444313,66.000229 65.000000,65.667007 
	C64.999840,64.889351 64.999687,64.444977 64.999542,64.000610 
z"/>
<path fill="#DBDBD8" opacity="1.000000" stroke="none" 
	d="
M65.000000,66.000305 
	C65.444313,66.000229 65.888618,66.000153 66.666397,66.000107 
	C66.999924,66.750084 66.999992,67.500038 67.000061,68.624954 
	C66.555717,68.999985 66.111359,69.000038 65.333504,68.750046 
	C65.000000,68.333229 65.000000,68.166466 65.000000,67.666458 
	C65.000000,66.888916 65.000000,66.444611 65.000000,66.000305 
z"/>
<path fill="#D9D9D6" opacity="1.000000" stroke="none" 
	d="
M65.000000,65.667007 
	C65.000000,66.444611 65.000000,66.888916 64.600044,67.666458 
	C63.133545,67.999382 62.067001,67.999077 61.000374,67.624031 
	C61.000137,66.499832 60.999992,65.750374 60.999924,64.750763 
	C61.000011,64.333839 61.000019,64.167076 61.000027,64.000305 
	C62.066765,64.000328 63.133503,64.000343 64.599892,64.000488 
	C64.999687,64.444977 64.999840,64.889351 65.000000,65.667007 
z"/>
<path fill="#D9D9D6" opacity="1.000000" stroke="none" 
	d="
M55.000092,63.000458 
	C56.066730,63.000420 57.133373,63.000381 58.599861,63.333832 
	C58.999779,64.111755 58.999847,64.556183 58.846317,65.244629 
	C58.128475,65.992386 57.564236,66.496124 56.666504,66.999893 
	C55.888687,66.999863 55.444363,66.999794 55.000023,66.624794 
	C55.000008,65.499931 55.000000,64.749992 55.000031,63.750160 
	C55.000065,63.500259 55.000092,63.000458 55.000092,63.000458 
z"/>
<path fill="#D9D9D6" opacity="1.000000" stroke="none" 
	d="
M49.000458,62.000885 
	C49.750229,62.000565 50.500000,62.000248 51.624744,62.333546 
	C51.999813,63.111446 51.999908,63.555729 52.000000,64.250320 
	C51.999950,64.667488 51.999897,64.834358 51.624870,65.000893 
	C50.499928,65.000580 49.749962,65.000595 48.999958,64.667397 
	C48.999893,63.889912 48.999870,63.445644 48.999985,62.751251 
	C49.000233,62.334381 49.000343,62.167633 49.000458,62.000885 
z"/>
<path fill="#D9D9D6" opacity="1.000000" stroke="none" 
	d="
M44.001106,65.998466 
	C44.001110,65.998466 43.501167,65.999809 43.249146,65.660828 
	C42.664631,64.547691 42.332138,63.773529 41.999748,62.748955 
	C42.000038,62.331600 42.000221,62.164658 42.000401,61.997711 
	C42.750286,61.998501 43.500168,61.999290 44.625046,62.249847 
	C45.000019,62.666458 45.000008,62.833305 44.998230,63.338173 
	C44.664680,64.450287 44.332893,65.224373 44.001106,65.998466 
z"/>
<path fill="#D7D7D4" opacity="1.000000" stroke="none" 
	d="
M45.000000,63.000153 
	C45.000008,62.833305 45.000019,62.666458 45.000069,62.249329 
	C46.131882,61.912842 47.263664,61.826633 48.697952,61.870659 
	C49.000343,62.167633 49.000233,62.334381 48.600010,62.750874 
	C47.133263,63.000462 46.066631,63.000305 45.000000,63.000153 
z"/>
<path fill="#D7D7D4" opacity="1.000000" stroke="none" 
	d="
M41.958885,61.677139 
	C42.000221,62.164658 42.000038,62.331600 41.666580,62.749039 
	C40.889069,62.999363 40.444839,62.999184 40.000610,62.999004 
	C40.000343,62.249416 40.000072,61.499832 39.999672,60.375465 
	C40.638817,60.452652 41.278091,60.904613 41.958885,61.677139 
z"/>
<path fill="#D7D7D4" opacity="1.000000" stroke="none" 
	d="
M52.000000,64.000015 
	C51.999908,63.555729 51.999813,63.111446 51.999630,62.333961 
	C52.862946,62.158669 53.726345,62.316578 54.794922,62.737473 
	C55.000092,63.000458 55.000065,63.500259 54.625031,63.750137 
	C53.500000,64.000015 52.750000,64.000015 52.000000,64.000015 
z"/>
<path fill="#D7D7D4" opacity="1.000000" stroke="none" 
	d="
M58.999920,65.000610 
	C58.999847,64.556183 58.999779,64.111755 58.999626,63.334023 
	C59.555153,63.170071 60.110767,63.339432 60.833202,63.754547 
	C61.000019,64.167076 61.000011,64.333839 60.666607,64.750565 
	C59.888783,65.000542 59.444351,65.000572 58.999920,65.000610 
z"/>
<path fill="#DBDBD8" opacity="1.000000" stroke="none" 
	d="
M44.998230,63.338173 
	C46.066631,63.000305 47.133263,63.000462 48.599869,63.000996 
	C48.999870,63.445644 48.999893,63.889912 48.999973,65.000710 
	C49.000031,66.111679 49.000031,66.556122 49.000031,67.000565 
	C48.250057,67.000443 47.500088,67.000313 46.375134,67.000244 
	C45.444733,66.830376 44.889309,66.660446 44.167496,66.244492 
	C44.332893,65.224373 44.664680,64.450287 44.998230,63.338173 
z"/>
<path fill="#DBDBD8" opacity="1.000000" stroke="none" 
	d="
M58.846317,65.244629 
	C59.444351,65.000572 59.888783,65.000542 60.666531,65.000717 
	C60.999992,65.750374 61.000137,66.499832 61.000168,67.874268 
	C60.999981,68.666069 60.999912,68.832878 60.999847,68.999695 
	C60.249851,68.999771 59.499851,68.999847 58.374851,69.000114 
	C57.999847,69.000305 57.499977,68.999954 57.250015,68.666428 
	C57.000034,67.888550 57.000015,67.444206 57.000000,66.999863 
	C57.564236,66.496124 58.128475,65.992386 58.846317,65.244629 
z"/>
<path fill="#DBDBD8" opacity="1.000000" stroke="none" 
	d="
M52.000000,64.250320 
	C52.750000,64.000015 53.500000,64.000015 54.624996,64.000038 
	C55.000000,64.749992 55.000008,65.499931 54.999996,66.874855 
	C54.999989,67.666550 54.999996,67.833244 54.666641,67.999924 
	C53.888805,68.000038 53.444324,68.000175 52.999847,68.000305 
	C52.999847,68.000305 52.500000,68.000000 52.250065,67.625031 
	C52.000034,66.500450 51.999943,65.750832 51.999847,65.001221 
	C51.999897,64.834358 51.999950,64.667488 52.000000,64.250320 
z"/>
<path fill="#DCDCDA" opacity="1.000000" stroke="none" 
	d="
M51.624870,65.000893 
	C51.999943,65.750832 52.000034,66.500450 52.000141,67.624878 
	C51.136936,67.841850 50.273716,67.683998 49.205265,67.263359 
	C49.000031,66.556122 49.000031,66.111679 49.000015,65.333923 
	C49.749962,65.000595 50.499928,65.000580 51.624870,65.000893 
z"/>
<path fill="#DDDDDB" opacity="1.000000" stroke="none" 
	d="
M53.030312,68.293274 
	C53.444324,68.000175 53.888805,68.000038 54.666641,68.249939 
	C55.000000,68.666649 55.000000,68.833321 55.000000,69.000000 
	C54.353592,68.862083 53.707188,68.724159 53.030312,68.293274 
z"/>
<path fill="#DCDCDA" opacity="1.000000" stroke="none" 
	d="
M55.333511,69.000000 
	C55.000000,68.833321 55.000000,68.666649 55.000000,68.249954 
	C54.999996,67.833244 54.999989,67.666550 55.000008,67.249786 
	C55.444363,66.999794 55.888687,66.999863 56.666508,66.999893 
	C57.000015,67.444206 57.000034,67.888550 57.000076,68.666382 
	C56.555744,68.999908 56.111382,68.999954 55.333511,69.000000 
z"/>
<path fill="#DBDBD8" opacity="1.000000" stroke="none" 
	d="
M39.781219,63.107086 
	C40.444839,62.999184 40.889069,62.999363 41.666470,62.999454 
	C42.332138,63.773529 42.664631,64.547691 42.999172,65.659859 
	C42.834297,65.998405 42.667377,65.998940 42.250076,66.000046 
	C41.249775,66.000320 40.499851,66.000023 39.374966,65.999405 
	C39.000019,65.554718 39.000038,65.110352 39.000042,64.332687 
	C39.100742,63.675968 39.288010,63.414562 39.781219,63.107086 
z"/>
<path fill="#DBDBD9" opacity="1.000000" stroke="none" 
	d="
M61.322968,69.026558 
	C60.999912,68.832878 60.999981,68.666069 61.000252,68.249008 
	C62.067001,67.999077 63.133545,67.999382 64.600044,67.999695 
	C65.000000,68.166466 65.000000,68.333229 65.000000,68.750153 
	C63.882030,69.018013 62.764057,69.035713 61.322968,69.026558 
z"/>
</svg>