<?xml version="1.0" encoding="UTF-8"?>
<svg xmlns="http://www.w3.org/2000/svg" xmlns:xlink="http://www.w3.org/1999/xlink" version="1.1" viewBox="0 0 1355.9 260.2">
  <defs>
    <style>
      .cls-1 {
        fill: #0a2643;
      }

      .cls-2 {
        fill: #4e2cea;
      }

      .cls-3 {
        fill: #0dcaff;
      }

      .cls-4 {
        fill: url(#linear-gradient);
      }

      .cls-5 {
        fill: #252944;
      }

      .cls-6 {
        isolation: isolate;
      }
    </style>
    <linearGradient id="linear-gradient" x1="295.1" y1="-1386.8" x2="296.3" y2="-1383.8" gradientTransform="translate(-24774 -46934.2) scale(84 -33.9)" gradientUnits="userSpaceOnUse">
      <stop offset="0" stop-color="#fff"/>
      <stop offset="1" stop-color="#b3b3ad"/>
    </linearGradient>
  </defs>
  <!-- Generator: Adobe Illustrator 28.7.0, SVG Export Plug-In . SVG Version: 1.2.0 Build 136)  -->
  <g>
    <g id="Layer_1">
      <g class="cls-6">
        <polygon points="888.7 213.6 889.5 213.6 889.5 214.7 888.7 213.6"/>
        <polygon points="930.4 213.6 929.6 214.7 929.6 213.6 930.4 213.6"/>
        <path d="M941.8,259.3l20.7-48.4h2.2l20.7,48.4h-2.4l-19.4-45.4-19.4,45.4h-2.5,0ZM950.7,243.2v-2.1h25.8v2.1h-25.8Z"/>
        <path d="M995.5,259.3v-48.4h17.9c4.7,0,8.3,1.2,10.9,3.6,2.6,2.4,3.8,5.8,3.8,10.3s-.6,5.5-1.7,7.6-2.8,3.6-5,4.8c-2.2,1.1-4.9,1.7-8,1.7h-16.9v-2.2h16.8c4,0,7.2-1,9.4-3.1s3.3-5,3.3-8.8-1.1-6.6-3.3-8.7c-2.2-2.1-5.3-3.1-9.4-3.1h-15.6v46.3h-2.2ZM1025.8,259.3l-15.5-20.6,2.2-.9,16.3,21.5h-2.9Z"/>
        <path d="M1039.7,259.3v-48.4h2.2v48.4h-2.2ZM1040.8,235.6v-2.2h14v2.2h-14ZM1071.8,259.3l-18.9-24.8,18-23.5h2.9l-18.1,23.5,18.9,24.8h-2.9Z"/>
        <path d="M1084.8,259.3v-48.4h29.7v2.1h-27.4v20.7h20.5v2.1h-20.5v21.5h28.3v2.1h-30.5Z"/>
      </g>
      <g id="Layer_2-2">
        <g id="Layer_1-2-2">
          <g id="Group_275-2">
            <g id="Group_221-2">
              <g id="Group_194-2">
                <path id="Path_287-2" class="cls-5" d="M216.9,2h81.1c10.7-.2,21.4,1.1,31.8,3.8,8.1,2.1,15.7,5.9,22.3,11.1,5.8,4.7,10.4,10.8,13.2,17.6,3,7.5,4.5,15.4,4.3,23.5,0,5.7-.7,11.4-2.1,16.9-2.8,10.6-9,20-17.8,26.7-4.8,3.7-10.1,6.6-15.8,8.7l34.7,51h-39.6l-30-45.3h-49.9c0,0,0,45.3,0,45.3h-32.2V2h0ZM298.7,88c5.4,0,10.9-.6,16.1-2.1,4.2-1.2,8.1-3.3,11.5-6,3-2.5,5.4-5.8,6.9-9.4,1.6-3.9,2.4-8.2,2.3-12.4,0-8.9-3.1-15.8-9.2-20.7s-15.3-7.3-27.6-7.3h-49.6v58h49.6Z"/>
                <path id="Path_288-2" class="cls-5" d="M407.9,2h135.7v28.3h-103.4v31.8h91.6v26.6h-91.6v44.4h105.5v28.2h-137.9V2h0Z"/>
                <path id="Path_289-2" class="cls-5" d="M581.6,2h84c10.7-.2,21.5,1.2,31.8,4,8.2,2.2,15.8,6.1,22.4,11.4,5.8,4.9,10.4,11.2,13.2,18.3,3,7.8,4.5,16,4.3,24.4,0,8.1-1.4,16-4.3,23.6-2.8,7.2-7.3,13.6-13,18.7-6.5,5.6-14.1,9.8-22.3,12.3-10.3,3.2-21,4.7-31.8,4.4h-51.9c0-.1,0,42.2,0,42.2h-32.4V2ZM666.5,91.1c5.4,0,10.9-.6,16.1-2.2,4.2-1.3,8.1-3.4,11.5-6.2,3.1-2.7,5.5-6,7-9.8,1.6-4.1,2.3-8.4,2.3-12.8,0-9.5-3.1-16.8-9.2-22.1s-15.3-7.9-27.6-7.9h-52.5v61h52.5s0,0,0,0Z"/>
                <path id="Path_290-2" class="cls-5" d="M772.6,2h32.4v131h92.7v28.4h-125V2q0,0,0,0Z"/>
                <path id="Path_291-2" class="cls-5" d="M924.9,2h32.5v159.3h-32.5V2h0Z"/>
                <path id="Path_292-2" class="cls-5" d="M988.9,80.7c0-10.9,2.1-21.7,6.4-31.8,4.2-9.8,10.6-18.5,18.6-25.6,8.7-7.6,18.8-13.4,29.8-17.1,12.8-4.3,26.3-6.4,39.8-6.2,12,0,24,1.3,35.8,4,10.6,2.5,20.8,6.6,30.2,12l-14.9,24.4c-3-2-6.3-3.6-9.6-4.9-3.8-1.5-7.7-2.7-11.6-3.6-4.2-1-8.5-1.8-12.8-2.3-4.3-.5-8.7-.8-13-.8-9.3-.1-18.7,1.1-27.6,3.8-7.4,2.2-14.4,5.8-20.4,10.7-5.4,4.4-9.8,10-12.7,16.4-2.9,6.6-4.4,13.8-4.3,21,0,7.5,1.4,14.9,4.5,21.7,3,6.6,7.4,12.4,13,17.1,6.1,5.1,13.2,8.9,20.8,11.2,9,2.8,18.4,4.1,27.8,4,4.7,0,9.4-.3,14-1,4.5-.7,9-1.6,13.4-2.8,4.2-1.2,8.4-2.6,12.5-4.3,3.8-1.6,7.6-3.4,11.2-5.5l14.9,24.5c-9.3,5.9-19.5,10.3-30.2,13.1-11.9,3.2-24.1,4.8-36.4,4.8-14.6.3-29.2-1.9-43.1-6.4-11.4-3.7-22-9.7-31-17.5-8.2-7.2-14.5-16.2-18.7-26.3-4.2-10.3-6.4-21.4-6.3-32.6h0Z"/>
                <path id="Path_293-2" class="cls-5" d="M1244.6,2h34.3l77.1,159.4h-34l-12.8-26.8h-93.1l-12.3,26.8h-34.1L1244.6,2ZM1296.5,108l-34.5-72.5-33.6,72.4h68Z"/>
              </g>
              <g id="Group_195-2">
                <path id="Path_294-2" class="cls-2" d="M52.5,54.2c3.8-2,8-3.3,12.2-3.8,1.1-.2,2.2-.2,3.4-.2h38.5c10.1-10.2,20.2-20.4,30.4-30.6l11.2-11.3c.8-.8,1.4-1.7,1.8-2.7.6-1.4.1-3.1-1.2-3.8-.9-.5-1.8-.9-2.8-1.1-1.2-.2-2.4-.3-3.6-.3h-74.2c-1.1,0-2.2,0-3.4.2-4.3.5-8.4,1.8-12.2,3.8-2.3,1.1-4.3,2.6-6.1,4.4-3.8,3.8-7.6,7.5-11.3,11.3L2.5,52.4c-.4.4-.9.9-1.2,1.4-.6.7-1,1.5-1.2,2.4-.2.9.1,1.9.8,2.6.5.5,1.2.9,1.9,1.2,1,.4,2,.6,3,.6,1.4,0,2.7,0,4.1,0l34.1.3,2.4-2.4c1.8-1.8,3.8-3.3,6.1-4.4h0Z"/>
                <path id="Path_295-2" class="cls-4" d="M148.1,58.1c.8-.8,1.4-1.7,1.8-2.7.6-1.4.1-3.1-1.2-3.8-.9-.6-1.8-.9-2.8-1.1-1.2-.2-2.4-.3-3.6-.3h-35.8l-2.9,2.9c-1.7,1.7-3.7,3.1-5.8,4.1-3.6,1.9-7.5,3.2-11.5,3.8-1.5.2-3,.3-4.5.3l-30.7-.3h-7.1l-9,9L2.5,102.2c-.4.4-.9.9-1.2,1.4-.6.7-1,1.5-1.2,2.4-.2.9.1,1.9.8,2.6.5.5,1.2.9,1.9,1.2,1,.4,2,.6,3,.6,1.4,0,2.8,0,4.1,0l34.4.3c.7-.7,1.3-1.3,2-2,1.8-1.8,3.9-3.3,6.1-4.4,3.8-2,8-3.3,12.2-3.8,1.1-.2,2.2-.2,3.4-.2h38.1c10.2-10.3,20.5-20.7,30.8-31l11.2-11.3h0Z"/>
                <path id="Path_296-2" class="cls-3" d="M97.8,107.1c-3.6,1.9-7.5,3.1-11.5,3.8-1.5.2-3,.3-4.5.3l-30.7-.2h-6.3c0,0-.4,0-.4,0-3.1,3.1-6.2,6.2-9.4,9.3L2.5,152.5c-.4.4-.9.9-1.2,1.4-.6.7-1,1.5-1.2,2.4-.2.9.1,1.9.8,2.6.5.5,1.2.9,1.9,1.2,1,.4,2,.6,3,.6,1.4,0,2.8,0,4.1.1l34.9.3h6.3c0,0,30.7.3,30.7.3,1.5,0,3-.1,4.5-.3,4-.6,7.9-1.9,11.5-3.8,2.2-1.1,4.1-2.4,5.8-4.1l33.3-33.5,11.2-11.3c.8-.8,1.4-1.7,1.8-2.7.7-1.4.1-3.1-1.2-3.9-.9-.6-1.8-.9-2.8-1.1-1.2-.2-2.4-.3-3.6-.3h-36.1l-2.5,2.5c-1.7,1.7-3.7,3.1-5.8,4.1h0Z"/>
              </g>
            </g>
            <path id="Path_496-2" class="cls-1" d="M1329.1,2.5h-5.1V0h13.1v2.5h-5.1v11.5h-2.8V2.5ZM1340.1,0h2.9l5,5.1L1353.1,0h2.8v14h-2.8V4l-5.1,4.8-5-4.9v10.1h-2.8s0-14,0-14Z"/>
          </g>
        </g>
      </g>
      <g class="cls-6">
        <path d="M224.9,259.3v-48.4h17.5c4.9,0,8.6,1.2,11.2,3.7,2.6,2.5,4,6,4,10.6s-1.3,8.1-4,10.6c-2.6,2.5-6.4,3.8-11.2,3.8h-16.5v-2.2h16.4c4.2,0,7.4-1.1,9.7-3.2,2.3-2.1,3.4-5.1,3.4-9.1s-1.1-6.9-3.4-9-5.5-3.2-9.7-3.2h-15.2v46.3h-2.2,0Z"/>
      </g>
      <g class="cls-6">
        <path d="M288,260.2c-4.8,0-8.9-1-12.4-3-3.4-2-6.1-4.9-7.9-8.6-1.8-3.7-2.7-8.2-2.7-13.5s.9-9.7,2.7-13.5c1.8-3.7,4.5-6.6,7.9-8.6s7.5-3,12.4-3,8.9,1,12.4,3,6.1,4.9,7.9,8.6,2.8,8.2,2.8,13.5-.9,9.7-2.8,13.5c-1.9,3.7-4.5,6.6-7.9,8.6-3.4,2-7.5,3-12.4,3ZM288,258c4.4,0,8.1-.9,11.2-2.7,3.1-1.8,5.5-4.4,7.1-7.9s2.5-7.5,2.5-12.3c0-7.2-1.8-12.8-5.5-16.9s-8.8-6.1-15.3-6.1-8,.9-11.1,2.7c-3.1,1.8-5.5,4.4-7.1,7.9s-2.5,7.5-2.5,12.3c0,7.2,1.8,12.8,5.5,16.9s8.8,6.1,15.2,6.1h0Z"/>
      </g>
      <g class="cls-6">
        <path d="M331.1,259.3l-15.1-48.4h2.5l13.8,44.7,14-44.7h2.2l14,44.7,13.8-44.7h2.5l-15.1,48.4h-2.2l-14-44.7-14,44.7h-2.2Z"/>
        <path d="M389.5,259.3v-48.4h29.7v2.1h-27.4v20.7h20.5v2.1h-20.5v21.5h28.3v2.1h-30.5Z"/>
        <path d="M431.1,259.3v-48.4h17.9c4.7,0,8.3,1.2,10.9,3.6,2.6,2.4,3.9,5.8,3.9,10.3s-.6,5.5-1.7,7.6c-1.1,2.1-2.8,3.6-5,4.8-2.2,1.1-4.9,1.7-8,1.7h-16.9v-2.2h16.9c4,0,7.1-1,9.4-3.1s3.3-5,3.3-8.8-1.1-6.6-3.3-8.7c-2.2-2.1-5.3-3.1-9.4-3.1h-15.6v46.3h-2.2ZM461.4,259.3l-15.5-20.6,2.2-.9,16.3,21.5h-2.9Z"/>
        <path d="M475.2,259.3v-48.4h29.7v2.1h-27.4v20.7h20.5v2.1h-20.5v21.5h28.3v2.1h-30.5Z"/>
        <path d="M516.7,259.3v-48.4h15.8c7.7,0,13.7,2.1,17.9,6.3s6.3,10.2,6.3,17.9-1,9.6-2.8,13.2c-1.9,3.6-4.6,6.3-8.2,8.2s-8,2.8-13.1,2.8h-15.9ZM519,257.3h13.5c4.7,0,8.7-.9,12-2.6,3.3-1.7,5.8-4.2,7.5-7.5,1.7-3.3,2.6-7.3,2.6-12,0-7.1-1.9-12.5-5.7-16.3-3.8-3.8-9.2-5.8-16.3-5.8h-13.5v44.2h0Z"/>
      </g>
      <g class="cls-6">
        <path d="M585.8,259.3v-48.4h18.9c4.3,0,7.6,1.1,9.9,3.2s3.5,5.2,3.5,9.1-.5,4.5-1.4,6.2-2.2,3.1-3.9,4c-1.7.9-3.7,1.4-6,1.4v-1c4.1,0,7.3,1.1,9.6,3.4,2.3,2.2,3.5,5.3,3.5,9.2s-1.2,7.2-3.6,9.5c-2.4,2.2-5.8,3.4-10.2,3.4h-20.2ZM588.1,257.3h17.9c3.7,0,6.6-.9,8.6-2.8s3.1-4.5,3.1-7.9-1-6.1-3.1-8-4.9-2.8-8.6-2.8h-19.1v-2h17.9c3.5,0,6.3-.9,8.2-2.7s2.9-4.4,2.9-7.7-1-5.8-2.9-7.6c-1.9-1.8-4.7-2.7-8.2-2.7h-16.7v44.2h0Z"/>
        <path d="M641.6,259.3v-21.5l-18.6-26.9h2.9l16.8,24.5,16.8-24.5h2.9l-18.5,26.9v21.5h-2.2Z"/>
      </g>
      <g class="cls-6">
        <path d="M708.7,260.2c-4.6,0-8.6-1-12-3.1-3.4-2-6-4.9-7.8-8.7s-2.8-8.2-2.8-13.3.9-9.7,2.7-13.5c1.8-3.7,4.4-6.6,7.8-8.6s7.5-3,12.2-3c9.1,0,15.7,3.7,19.8,11.2l-2.2.9c-1.8-3.3-4.2-5.8-7.1-7.5-2.9-1.7-6.4-2.5-10.5-2.5s-7.9.9-11,2.7c-3.1,1.8-5.4,4.4-7.1,7.9-1.7,3.4-2.5,7.6-2.5,12.4s.8,8.8,2.5,12.2c1.7,3.4,4,6.1,7.1,8,3,1.9,6.7,2.8,10.8,2.8s7.6-.9,10.5-2.6c2.9-1.7,5.1-4.1,6.7-7.3s2.3-6.9,2.3-11.4l1,1h-18.1v-2h19.2c0,.2,0,.4,0,.6,0,.2,0,.5,0,.7,0,4.8-.9,8.9-2.6,12.4-1.7,3.4-4.2,6.1-7.5,7.9-3.2,1.8-7.1,2.7-11.7,2.7h0,0Z"/>
        <path d="M741.4,259.3v-48.4h17.9c4.7,0,8.3,1.2,10.9,3.6,2.6,2.4,3.8,5.8,3.8,10.3s-.6,5.5-1.7,7.6c-1.2,2.1-2.8,3.6-5,4.8s-4.9,1.7-8,1.7h-16.9v-2.2h16.8c4,0,7.2-1,9.4-3.1,2.2-2,3.3-5,3.3-8.8s-1.1-6.6-3.3-8.7c-2.2-2.1-5.3-3.1-9.4-3.1h-15.6v46.3h-2.2ZM771.7,259.3l-15.5-20.6,2.2-.9,16.3,21.5h-2.9Z"/>
        <path d="M785.5,259.3v-48.4h29.7v2.1h-27.4v20.7h20.5v2.1h-20.5v21.5h28.3v2.1h-30.5,0Z"/>
      </g>
      <g class="cls-6">
        <path d="M840.9,259.3v-21.5l-18.6-26.9h2.9l16.8,24.5,16.8-24.5h2.9l-18.5,26.9v21.5h-2.2Z"/>
      </g>
      <g class="cls-6">
        <polygon points="931.8 211 931.8 259.3 929.6 259.3 929.6 214.7 930.4 213.6 929.6 213.6 929.6 214.7 910.5 242.2 908.6 242.2 889.5 214.7 889.5 213.6 888.7 213.6 889.5 214.7 889.5 259.3 887.3 259.3 887.3 211 889.5 211 909.5 239.8 929.6 211 931.8 211"/>
        <polygon points="888.7 213.6 889.5 213.6 889.5 214.7 888.7 213.6"/>
        <polygon points="930.4 213.6 929.6 214.7 929.6 213.6 930.4 213.6"/>
        <path d="M941.8,259.3l20.7-48.4h2.2l20.7,48.4h-2.4l-19.4-45.4-19.4,45.4h-2.5,0ZM950.7,243.2v-2.1h25.8v2.1h-25.8Z"/>
        <path d="M995.5,259.3v-48.4h17.9c4.7,0,8.3,1.2,10.9,3.6,2.6,2.4,3.8,5.8,3.8,10.3s-.6,5.5-1.7,7.6-2.8,3.6-5,4.8c-2.2,1.1-4.9,1.7-8,1.7h-16.9v-2.2h16.8c4,0,7.2-1,9.4-3.1s3.3-5,3.3-8.8-1.1-6.6-3.3-8.7c-2.2-2.1-5.3-3.1-9.4-3.1h-15.6v46.3h-2.2ZM1025.8,259.3l-15.5-20.6,2.2-.9,16.3,21.5h-2.9Z"/>
        <path d="M1039.7,259.3v-48.4h2.2v48.4h-2.2ZM1040.8,235.6v-2.2h14v2.2h-14ZM1071.8,259.3l-18.9-24.8,18-23.5h2.9l-18.1,23.5,18.9,24.8h-2.9Z"/>
        <path d="M1084.8,259.3v-48.4h29.7v2.1h-27.4v20.7h20.5v2.1h-20.5v21.5h28.3v2.1h-30.5Z"/>
      </g>
      <g class="cls-6">
        <path d="M1140.5,259.3v-46.3h-17.9v-2.1h38.1v2.1h-17.9v46.3h-2.2,0Z"/>
      </g>
      <g class="cls-6">
        <path d="M1186.1,259.3v-48.4h2.2v46.3h26.5v2.1h-28.7Z"/>
      </g>
      <g class="cls-6">
        <path d="M1221.2,259.3l20.7-48.4h2.2l20.7,48.4h-2.4l-19.4-45.4-19.4,45.4h-2.4,0ZM1230,243.2v-2.1h25.8v2.1h-25.8Z"/>
        <path d="M1274.9,259.3v-48.4h18.9c4.3,0,7.6,1.1,9.9,3.2,2.3,2.2,3.5,5.2,3.5,9.1s-.5,4.5-1.4,6.2-2.2,3.1-3.9,4c-1.7.9-3.7,1.4-6.1,1.4v-1c4.1,0,7.3,1.1,9.6,3.4,2.3,2.2,3.5,5.3,3.5,9.2s-1.2,7.2-3.6,9.5c-2.4,2.2-5.8,3.4-10.2,3.4h-20.2,0ZM1277.1,257.3h17.9c3.7,0,6.6-.9,8.6-2.8,2-1.9,3.1-4.5,3.1-7.9s-1-6.1-3.1-8-4.9-2.8-8.6-2.8h-19.1v-2h17.9c3.6,0,6.3-.9,8.2-2.7s2.9-4.4,2.9-7.7-1-5.8-2.9-7.6c-1.9-1.8-4.7-2.7-8.2-2.7h-16.7v44.2h0Z"/>
        <path d="M1333.4,260.2c-3.6,0-6.8-.6-9.8-1.7-3-1.1-5.7-2.9-8-5.2l1.5-1.6c2.2,2.1,4.7,3.7,7.4,4.8s5.7,1.6,8.8,1.6c4.7,0,8.4-1,11.1-3.1,2.8-2.1,4.1-4.8,4.1-8.3s-.4-3.7-1.3-5-2-2.3-3.5-3.1c-1.5-.7-3.1-1.3-5-1.7-1.8-.4-3.7-.8-5.7-1.1-2.1-.3-4.1-.7-6.1-1.2s-3.8-1.1-5.4-2-2.9-2.1-3.8-3.6-1.4-3.5-1.4-5.9.7-4.9,2.1-6.9,3.4-3.5,5.9-4.5,5.5-1.6,9-1.6c6.7,0,12.2,2,16.5,6.1l-1.5,1.6c-2.1-1.8-4.4-3.1-6.9-4.1s-5.2-1.4-8.1-1.4c-4.6,0-8.2,1-10.8,2.9-2.7,2-4,4.6-4,8s.4,3.6,1.3,4.9,2,2.2,3.4,2.9c1.4.7,3.1,1.3,4.9,1.7,1.8.4,3.7.8,5.6,1.1,2.1.3,4.1.8,6.2,1.2,2,.5,3.9,1.2,5.5,2.1,1.6.9,2.9,2.1,3.9,3.7,1,1.6,1.5,3.6,1.5,6.2s-.7,5.1-2.1,7.1c-1.4,2-3.4,3.6-6.1,4.7s-5.7,1.7-9.2,1.7h0Z"/>
      </g>
    </g>
  </g>
</svg>